/* XPM */
static char *esse1667394296[] = {
/* columns rows colors chars-per-pixel */
"7 8 2 1 ",
"  c black",
". c white",
/* pixels */
"       ",
" ..... ",
" ..    ",
" ..... ",
"    .. ",
" ..... ",
"       ",
"       "
};
