/* XPM */
static char *nove1667401074[] = {
/* columns rows colors chars-per-pixel */
"7 8 2 1 ",
"  c black",
". c white",
/* pixels */
"       ",
" ..... ",
" .. .. ",
" ..... ",
"    .. ",
" ..... ",
"       ",
"       "
};
