/* XPM */
static char *a1919441181d4248c6c4ec95424b71cdCpuP8CN3ShINwtaf[] = {
/* columns rows colors chars-per-pixel */
"7 8 2 1 ",
"  c black",
". c white",
/* pixels */
"       ",
" ..... ",
" .. .. ",
" ..... ",
" .. .. ",
" ..... ",
"       ",
"       "
};
