/* XPM */
static char *cab2f7016de542b087ae8b6b0ab2cc0ddcABF94Xd0YUyTdr[] = {
/* columns rows colors chars-per-pixel */
"7 8 3 1 ",
"  c None",
". c black",
"X c white",
/* pixels */
".......",
".XX.XX.",
".XX.XX.",
".XXXXX.",
"....XX.",
"....XX.",
"   ....",
"   ...."
};
