/* XPM */
static char *_19bcc55904a4f20e61812b80cbd8399ea6U4kWMCNgGM197[] = {
/* columns rows colors chars-per-pixel */
"7 8 2 1 ",
"  c black",
". c white",
/* pixels */
"       ",
" ..... ",
" ..    ",
" ..... ",
" .. .. ",
" ..... ",
"       ",
"       "
};
