/* XPM */
static char *af3f1c87242742d8bb4ac75bf051091ff89AHATBiqU4XjZh[] = {
/* columns rows colors chars-per-pixel */
"7 8 3 1 ",
"  c None",
". c black",
"X c white",
/* pixels */
".......",
".XXXXX.",
"....XX.",
"....XX.",
"   .XX.",
"   .XX.",
"   ....",
"   ...."
};
