/* XPM */
static char *de40517bfc744327e1b71dc8abbb707bJfITVsk7JsXuAzYv[] = {
/* columns rows colors chars-per-pixel */
"4 8 2 1 ",
"  c black",
". c white",
/* pixels */
"    ",
" .. ",
" .. ",
" .. ",
" .. ",
" .. ",
"    ",
"    "
};
