/* XPM */
static char *_1c2375645634884d1754cd25a6e51c5JqHLCQiipZQ6lVhQ[] = {
/* columns rows colors chars-per-pixel */
"7 8 2 1 ",
"  c black",
". c white",
/* pixels */
"       ",
" ..... ",
" .. .. ",
" .. .. ",
" .. .. ",
" ..... ",
"       ",
"       "
};
