/* XPM */
static char *close[] = {
/* columns rows colors chars-per-pixel */
"48 48 151 2 ",
"   c #2E3636",
".  c #2D3B37",
"X  c #2E363B",
"o  c #2E3B3C",
"O  c #313637",
"+  c #333A37",
"@  c #32363C",
"#  c #39363B",
"$  c #333B3C",
"%  c #393C3C",
"&  c #661E1F",
"*  c #6C1F1F",
"=  c #7F1617",
"-  c #761D1D",
";  c #791D1F",
":  c #671F21",
">  c #6A1F21",
",  c #4B2E2F",
"<  c #5B2D2E",
"1  c #432E37",
"2  c #4C2D32",
"3  c #502C31",
"4  c #433434",
"5  c #4E3131",
"6  c #41343D",
"7  c #423838",
"8  c #49383B",
"9  c #503236",
"0  c #5C3231",
"q  c #553832",
"w  c #662324",
"e  c #6A2223",
"r  c #6C2A2C",
"t  c #762525",
"y  c #7A2526",
"u  c #762825",
"i  c #792924",
"p  c #752528",
"a  c #782529",
"s  c #752F29",
"d  c #792928",
"f  c #2E413D",
"g  c #33413D",
"h  c #2E3540",
"j  c #2E3C41",
"k  c #333641",
"l  c #393641",
"z  c #333C42",
"x  c #383D43",
"c  c #353E48",
"v  c #2E4242",
"b  c #334142",
"n  c #394143",
"m  c #3A454E",
"M  c #960E0D",
"N  c #9C0B0B",
"B  c #8B1315",
"V  c #881318",
"C  c #901718",
"Z  c #9C1919",
"A  c #A70404",
"S  c #AA0505",
"D  c #A70909",
"F  c #AB0909",
"G  c #B10606",
"H  c #B90404",
"J  c #B10808",
"K  c #BD0E0E",
"L  c #A51212",
"P  c #AE1212",
"I  c #A51618",
"U  c #B11113",
"Y  c #80201D",
"T  c #822523",
"R  c #C30606",
"E  c #CB0505",
"W  c #C70A0A",
"Q  c #CB0808",
"!  c #D60404",
"~  c #DB0505",
"^  c #DC0C0C",
"/  c #DC1413",
"(  c #D71F1F",
")  c #DB1D1D",
"_  c #D72525",
"`  c #D62C2C",
"'  c #D43A3A",
"]  c #DB3A3A",
"[  c #D34544",
"{  c #DB4040",
"}  c #D14F4F",
"|  c #DB4A4A",
" . c #CF5B5A",
".. c #D15454",
"X. c #DB5151",
"o. c #DB5858",
"O. c #CE6B6A",
"+. c #D16060",
"@. c #DB6161",
"#. c #D36A6A",
"$. c #DB6F6F",
"%. c #DB706F",
"&. c #CC7473",
"*. c #D47474",
"=. c #DA7474",
"-. c #D47978",
";. c #DB7C7C",
":. c #CB8282",
">. c #CB8988",
",. c #DA8686",
"<. c #DB8E8E",
"1. c #CA9393",
"2. c #C79D9C",
"3. c #C89A9A",
"4. c #DA9696",
"5. c #D29B9A",
"6. c #DA9A99",
"7. c #C6A2A1",
"8. c #C8A3A3",
"9. c #C5AFAE",
"0. c #DAA2A2",
"q. c #D2A8A7",
"w. c #DAAEAD",
"e. c #DAB0AF",
"r. c #C5B0B0",
"t. c #C6B9B8",
"y. c #D4B6B5",
"u. c #DAB3B2",
"i. c #D1BABA",
"p. c #DABDBC",
"a. c #C3C5C4",
"s. c #C3CFCE",
"d. c #DAC2C2",
"f. c #D1CFCE",
"g. c #C3D4D3",
"h. c #D4D1D1",
"j. c #DAD8D7",
"k. c #D2DDDC",
"l. c #DADBDB",
"z. c #CEECEB",
"x. c #DAE5E4",
"c. c #D3EFEE",
"v. c #DAEAE9",
"b. c #CEF0EF",
"n. c #D3F0EF",
"m. c #CEF2F1",
"M. c #D3F1F0",
"N. c #D9F7F6",
"B. c #DAF8F7",
"V. c #D7FCFB",
"C. c #DAFAF9",
/* pixels */
"m b z c X X z c c n # 0 s T = T T r q % m c c c n b v $ z n m X h n z @ o z n z z n $ g $ $ v g ",
"z z z @ @ z $ g 8 a I Q E E R E E E W Z p %   z b o @ x $ % z o . o . @ $ + l $ @ j $ o j o $ f ",
"$ $ z z c n g 0 F E H H S S S S S G J R Q Z 5 $ z $ @ g g @ z $ @ o . . @ o o o X X $ g o g @ X ",
"% z z z $ $ 0 K E S S A S S A S S A S S G E P 5 $ @ . g + $ $ $ z z f @ z z $ v X . . + z $ g $ ",
"g o h + + 8 U E S S S S S S A A A A S S A S E I % h   g + + o z $ z g f v z $ o h z X X z @ j j ",
"g o . @ o y E G S S S S S S S S S S S S S S H Q 0 $ X f v X @ j + $ n + f b j $ h o z h z z v j ",
"b h j l $ Z E R R R R R R R R R R R R R R R R Q u $ X g g f o b g c g g o z o b g $ z z o c j h ",
"h . z $ # B F F F F D G A A F F S F A G S F F A ; g n $ n x f g @ $ @ o z X j n f @ h o h v j X ",
"n . + $ $ V S S A A A A A A A A A A A A A A A A - g z g o j z z z # $ . X v j z $ $ x # o h X z ",
"b f + + + C J J J J G G F G J J G J J J F J J F t $ $ z j h b + # $ b g o o z z $ $ $ % g X @ $ ",
"z c g g g P ~ ) ( ( ( ( ) ( ( ( ( ( ( ( ( ( ^ E t z $ $ z j j $ o O $ z o $ g $ % % $ @ + f x $ ",
"c b o o g P ) :.r.9.r.>. .9.r.r.3...7.r.r.8.[ ! t + @ x z $ f j z $ $ z z X # $ # % x $ z x z % ",
"x $ j . @ P ) 7.z.z.z.y.*.z.z.b.f.#.k.z.z.s...! u @ o j $ $ n   $ x @ z b $ @ $ $ n b $ n c b $ ",
"z @ n $   P ) 7.z.N.N.p.;.N.N.N.j.$.x.N.N.s...! p . o b $ $ @ k z @ . + n g @ + + g g z z X f k ",
"x o $ @ @ P ) 7.z.N.N.p.;.N.N.C.j.%.x.N.N.s...! u o @ z g f f n z g n z g v z O   $ z c $ @ X k ",
"n j o X @ P ) 7.z.N.N.p.;.N.N.N.j.%.x.C.N.s...! p o z b $ @ z z $ n b z g b c @ . o X z $   v j ",
"b g $ $ @ F ) 7.c.B.B.p.;.B.B.B.j.%.x.N.M.s...! y @ $ j z z z @ f o z z X z @ o g $ X . + $ o + ",
"$ $ $ g n P ) 7.z.B.B.p.;.B.B.B.j.%.x.N.N.s...! u z z z @ + $ $ z $ j z . @ z X f + @ . o o $ @ ",
"z g # @ @ P ) 7.z.N.B.p.;.N.B.C.j.%.x.N.N.s...! u @ o @ @ + $ $ + @ o $ h $ h X j @ $ . X X g $ ",
"c z X . o P _ 7.z.N.B.p.=.N.B.C.j.%.x.C.N.s...! t z $ $ + % $ $ $ @ + + b z z $ b n g $ o @ z X ",
"z v j $ z P ) -.y.d.d.4.@.d.d.d.w.o.u.d.d.8.' ! u @ # @ $ x X $ $ @ $ n $ z $ $ o z z n $ $ c   ",
"j b b z $ P / O.5.0.0.;.X.0.0.0.<.| 4.0.0.>.' ! y z $ $ $ $ z $ f $ @ h @ . + @ o $ c g + $ z X ",
"z b o o . P ) 7.z.N.N.p.=.B.B.B.j.$.x.N.N.s...! y x @ $ $ # $ g b z z X @ @ z z b f $ @ + % $ f ",
"z h f + @ P ) 7.z.N.N.p.;.B.B.B.j.$.x.N.N.s...! t @ $ % $ $ $ $ @ n z z + o x $ @ o $ $ g $ g o ",
"@ j z z o P ) 7.z.N.N.p.;.B.B.B.j.$.x.B.M.s...! p X . @ z $ z k z z o o f o $ z @ $ $ b o b v b ",
"z $ @ $ f P ) 7.z.N.C.p.;.N.B.B.j.=.x.B.N.s...! p X o b z z z @ z $ $ @ z z $ g @ @ @ X z g o v ",
"g f X $ g P ) 7.z.N.N.p.;.N.N.B.j.$.x.N.N.s...! p o $ f X z h $ $ $ @ f @ $ + f + $ $ g o + @ + ",
"$ g j . $ P ) 7.z.N.N.p.;.N.N.B.j.$.x.N.M.s.} ! t X f o X j g v o o + $ @ $ o $ g f $ z g o o @ ",
"n b o o x U ( 8.z.N.N.p.;.B.C.C.j.$.x.B.N.s...! u z o @ z h $ @ $ g v X z @ o o g z o o $ @ + o ",
"$ + $ x $ U ( 7.c.N.N.p.;.B.C.C.j.$.x.B.N.s...! t g b $ g @ $ + X g $ g z z v @ z b j j j $ + j ",
"g $ h j $ P ) 8.M.V.C.d.;.C.C.C.l.=.v.C.V.g...! u . X @ f @ @ $ $ + g g g z n z X g n o h h b $ ",
"$ g b z b P / ..-.;.,.@.{ ;.;.;.=.] =.;.;.O.` ! T @ z @ $ @ + $ g g n + j n g z z n $ @ z $ z v ",
"$ $ @ n b P / &.q.u.e.,.o.e.e.u.4.X.0.e.w.1.' ! y   k z g @ . o g n $ $ @ g z $ X $ % @ $ o @ b ",
"% c f @ z P ( 8.b.V.V.d.;.V.C.C.l.=.v.V.V.g...! t @ @ z X . o f g g z g $ . f $ @ g g $ % $ o g ",
"c b $ + j P ) 7.z.N.N.p.;.B.B.C.j.$.x.N.N.s...! d + @ z h f z o z g z z $ l $ @ $ + $ z $ z @ + ",
"z b o v z P ) 7.z.N.N.p.;.B.B.B.j.=.x.N.N.s...! i g @ @ g $ z n $ + o z z z $ $ % o v z b b o + ",
"b o X v o P ) 7.c.N.N.p.;.N.N.B.j.$.x.N.N.s.} ! u @ $ $ $ j v f z $ @ n X z g $ $ o z j $ @ X @ ",
"z z @ z $ P ) 7.z.N.B.p.;.N.B.B.j.$.x.N.N.s...! u j $ $ @ z z $ z . @ g . o $ x $ . j j b @ @ h ",
"$ c X X $ P ( 7.z.N.B.p.;.N.N.B.j.$.x.N.N.s...~ u x @ n $ h $ + g b b g @ x @ @ @ g f o z l x h ",
"z z @ x X P ) 7.z.N.B.p.;.B.B.B.j.$.x.N.N.s...! y @ $ g z o z b $ $ # @ @ c $ + h j $ @ . x $ $ ",
"g $ $ $ $ P ) 8.z.v.n.y.;.c.c.c.h.#.k.n.n.s...! y g $ $ $ . @ z z $ $ o z v b $ v v x $ + z @ $ ",
"% z # # @ P ) 2.g.s.g.7.O.g.g.g.t.+.a.g.g.a...! t $ $ $ g g + k z @ @ . b @ z o . n $ + X j o z ",
"# % $ % + P ^ [  . . .[ `  . . ...` .. . ..._ ! u x j $ g $ + . X @ + b j o $ X @ x g b $ f o X ",
"z @ @ $ @ P ~ ~ ~ ~ ~ ~ ~ ~ ~ ~ ~ ~ ~ ~ ~ ~ ~ ! t z o z b $ $ + @ @ o b X o j z $ @ @ b $ z b h ",
"n z b z O L ~ ! ! ! ! ! ! ! ! ! ! ! ! ! ! ! ~ E t # k z g z z . f @ + g g $ z j X @ g o x h $ z ",
"g + z 2 B N A D D D D D D D D D D D D D D D D D M = 1 z + j j o + @ + g j b $ @ o n g n @ x   k ",
"g b b 2 S S A A D A A S A A F A S A A F D A A A S M , h j j z g $ $ . X j z $ @ z n $ $ z z . k ",
"z $ x 7 e e e > e > > w > e > : w & e e w & e e e w 4 z j $ o f z h X $ z z z x z o . k x z @ z "
};
